<svg width="17" height="4" viewBox="0 0 17 4" fill="none" xmlns="http://www.w3.org/2000/svg">
<path d="M3.9232 2C3.9232 3.10457 3.04499 4 1.96166 4C0.878333 4 0.00012207 3.10457 0.00012207 2C0.00012207 0.895431 0.878333 0 1.96166 0C3.04499 0 3.9232 0.895431 3.9232 2Z" fill="black"/>
<path d="M10.4617 2C10.4617 3.10457 9.58345 4 8.50012 4C7.41679 4 6.53858 3.10457 6.53858 2C6.53858 0.895431 7.41679 0 8.50012 0C9.58345 0 10.4617 0.895431 10.4617 2Z" fill="black"/>
<path d="M17.0001 2C17.0001 3.10457 16.1219 4 15.0386 4C13.9553 4 13.077 3.10457 13.077 2C13.077 0.895431 13.9553 0 15.0386 0C16.1219 0 17.0001 0.895431 17.0001 2Z" fill="black"/>
</svg>
